<svg width="12" height="12" viewBox="0 0 12 12" fill="none" xmlns="http://www.w3.org/2000/svg">
<path fill-rule="evenodd" clip-rule="evenodd" d="M8.91356 0.737288H2.27288C2.31356 0.259322 2.60339 0 3.11186 0H8.07458C8.58305 0 8.87288 0.259322 8.91356 0.737288ZM9.91525 2.27288H1.20508C1.27119 1.76949 1.54068 1.47458 2.11525 1.47458H9.00508C9.57966 1.47458 9.84407 1.76949 9.91525 2.27288ZM9.37119 12H1.7339C0.605085 12 0 11.4 0 10.2814V4.84576C0 3.72203 0.605085 3.12203 1.7339 3.12203H9.37119C10.5 3.12203 11.1051 3.72712 11.1051 4.84576V10.2814C11.1051 11.4 10.5 12 9.37119 12ZM4 5.5V9.5L8 7.50707L4 5.5Z" fill="white"/>
</svg>
