<svg width="12" height="12" viewBox="0 0 12 12" fill="none" xmlns="http://www.w3.org/2000/svg">
<path d="M6.00259 11.2652C6.12192 11.2652 6.23606 11.2547 6.36057 11.2442L6.64073 11.7862C6.70817 11.9388 6.86381 12.0177 7.0454 11.9914C7.20623 11.9651 7.32555 11.8335 7.3463 11.6651L7.4345 11.0548C7.66278 10.9916 7.89105 10.9022 8.10895 10.8075L8.54994 11.2126C8.67445 11.3337 8.84566 11.3547 9.00648 11.2652C9.14656 11.1811 9.20882 11.0232 9.17769 10.8496L9.04799 10.2497C9.23995 10.1129 9.43191 9.95506 9.60311 9.78669L10.1582 10.0235C10.3191 10.0866 10.4799 10.0498 10.5992 9.90245C10.703 9.78142 10.7185 9.60779 10.6304 9.46046L10.3087 8.93428C10.4384 8.73959 10.5525 8.52386 10.6615 8.30286L11.2685 8.33443C11.4345 8.34496 11.585 8.24498 11.6368 8.08187C11.6939 7.91875 11.642 7.75037 11.5123 7.64514L11.035 7.26629C11.0921 7.03477 11.1388 6.79273 11.1595 6.54542L11.7354 6.36126C11.9014 6.30338 12 6.17184 12 5.9982C12 5.82456 11.9014 5.68775 11.7354 5.62987L11.1595 5.44571C11.1388 5.19841 11.0921 4.96162 11.035 4.72484L11.5071 4.346C11.642 4.24602 11.6939 4.07764 11.6368 3.91979C11.585 3.75668 11.4345 3.6567 11.2685 3.66722L10.6615 3.68827C10.5525 3.46728 10.4384 3.2568 10.3087 3.05686L10.6304 2.53594C10.7185 2.39387 10.703 2.22023 10.5992 2.09395C10.4799 1.95188 10.3191 1.90979 10.1582 1.97819L9.60311 2.20445C9.43191 2.04133 9.23995 1.88348 9.04799 1.74667L9.17769 1.14683C9.20882 0.967926 9.14656 0.810072 9.0013 0.731146C8.84047 0.641695 8.67445 0.65748 8.54994 0.783763L8.10895 1.18366C7.89105 1.08895 7.66278 1.01002 7.4345 0.941617L7.3463 0.336511C7.32555 0.162872 7.20623 0.0365891 7.04021 0.00501839C6.86381 -0.0212906 6.71336 0.0576363 6.64591 0.199705L6.36057 0.752193C6.23606 0.741669 6.12192 0.736407 6.00259 0.736407C5.87808 0.736407 5.76394 0.741669 5.63943 0.752193L5.35409 0.204966C5.28664 0.0576363 5.131 -0.0212906 4.9546 0.00501839C4.78859 0.0365891 4.67445 0.162872 4.64851 0.336511L4.5655 0.941617C4.33722 1.01002 4.10895 1.08895 3.89105 1.18366L3.45006 0.783763C3.32555 0.662742 3.15435 0.641695 2.99352 0.731146C2.85344 0.810072 2.78599 0.967926 2.82231 1.14683L2.94682 1.74667C2.75486 1.88348 2.56809 2.04133 2.39689 2.20445L1.83658 1.97819C1.68093 1.90979 1.5201 1.95188 1.39559 2.09395C1.29702 2.22023 1.28145 2.39387 1.36965 2.53068L1.69131 3.05686C1.55642 3.2568 1.44228 3.46728 1.33852 3.68827L0.731517 3.66722C0.560311 3.6567 0.409857 3.75668 0.357977 3.91979C0.306096 4.07764 0.352789 4.24602 0.487678 4.346L0.964981 4.73011C0.907912 4.96162 0.856031 5.19841 0.840467 5.44571L0.264591 5.62987C0.0985733 5.68775 0 5.82456 0 5.9982C0 6.17184 0.0985733 6.30338 0.264591 6.36126L0.840467 6.55069C0.856031 6.79273 0.907912 7.03477 0.964981 7.26629L0.487678 7.64514C0.357977 7.75037 0.306096 7.91875 0.357977 8.0766C0.409857 8.24498 0.560311 8.34496 0.731517 8.33443L1.33852 8.30286C1.44228 8.52386 1.55642 8.73959 1.69131 8.93428L1.36446 9.46046C1.27626 9.60779 1.29183 9.78142 1.39559 9.90245C1.5201 10.0498 1.68093 10.0866 1.84176 10.0182L2.3917 9.78669C2.56809 9.95506 2.75486 10.1129 2.94682 10.2497L2.82231 10.8548C2.78599 11.0232 2.84825 11.1811 2.9987 11.2705C3.15435 11.3547 3.32036 11.3337 3.44488 11.2179L3.89105 10.8075C4.10895 10.9022 4.33204 10.9916 4.5655 11.0548L4.64851 11.6651C4.67445 11.8335 4.78859 11.9651 4.95979 11.9966C5.131 12.0177 5.28664 11.9388 5.35409 11.7914L5.63943 11.2442C5.76394 11.2547 5.87808 11.2652 6.00259 11.2652ZM7.39818 5.51937C7.13359 4.83008 6.58366 4.45649 5.9559 4.45649C5.87808 4.45649 5.7847 4.46175 5.63424 4.49859L4.30091 2.17288C4.81453 1.93083 5.38521 1.79929 5.99741 1.79929C8.13489 1.79929 9.81582 3.41466 10.0441 5.51937H7.39818ZM1.92996 5.9982C1.92996 4.63539 2.53696 3.43044 3.49676 2.66748L4.84047 4.99846C4.5655 5.31943 4.44099 5.66144 4.44099 6.01398C4.44099 6.35074 4.56031 6.67171 4.84047 6.99794L3.45525 9.29734C2.5214 8.53438 1.92996 7.34522 1.92996 5.9982ZM5.33852 6.00872C5.33852 5.65618 5.62905 5.38257 5.96109 5.38257C6.30869 5.38257 6.58885 5.65618 6.58885 6.00872C6.58885 6.356 6.30869 6.64014 5.96109 6.64014C5.63424 6.64014 5.33852 6.356 5.33852 6.00872ZM5.99741 10.1971C5.36965 10.1971 4.77821 10.0603 4.25422 9.80773L5.62905 7.51885C5.76913 7.55569 5.87289 7.56095 5.9559 7.56095C6.58885 7.56095 7.13359 7.1821 7.39818 6.47176H10.0441C9.82101 8.58174 8.14008 10.1971 5.99741 10.1971Z" fill="white"/>
</svg>
